<svg width="20" height="20" viewBox="0 0 20 20" fill="none" xmlns="http://www.w3.org/2000/svg">
<path fill-rule="evenodd" clip-rule="evenodd" d="M8.09991 5.00002C8.09991 3.95068 8.95057 3.10002 9.99991 3.10002C11.0493 3.10002 11.8999 3.95068 11.8999 5.00002C11.8999 6.04937 11.0493 6.90002 9.99991 6.90002C8.95057 6.90002 8.09991 6.04937 8.09991 5.00002ZM9.99991 1.90002C8.28783 1.90002 6.89991 3.28794 6.89991 5.00002C6.89991 6.71211 8.28783 8.10002 9.99991 8.10002C11.712 8.10002 13.0999 6.71211 13.0999 5.00002C13.0999 3.28794 11.712 1.90002 9.99991 1.90002ZM4.60906 16.9H8.99917C9.18636 17.3285 9.42212 17.7308 9.6995 18.1H3.9999H3.3999V17.5C3.3999 14.1738 4.16583 12.1014 5.46293 10.8763C6.75736 9.65382 8.45154 9.40005 9.9999 9.40005C10.405 9.40005 10.8201 9.41742 11.2354 9.46497C10.7508 9.77982 10.3145 10.1627 9.93999 10.6002C8.51235 10.607 7.22928 10.8587 6.28687 11.7488C5.3959 12.5902 4.69624 14.1116 4.60906 16.9ZM14.6462 8.57416C15.3724 8.29046 16.0912 8.57103 16.8002 8.98039C17.5092 9.38976 18.1116 9.87197 18.229 10.6427C18.285 11.0105 18.2188 11.3809 18.0902 11.7498C18.0407 11.8918 17.9801 12.039 17.9094 12.1918C18.1983 12.287 18.4572 12.4149 18.681 12.589C19.5028 13.2281 19.6002 14.2846 19.6002 15.5C19.6002 16.7344 19.4937 17.8551 18.737 18.6119C17.9866 19.3624 16.7551 19.6004 15.0002 19.6002C13.2452 19.6001 12.0138 19.3622 11.2634 18.6118C10.5067 17.855 10.4002 16.7344 10.4002 15.5C10.4002 14.2846 10.4976 13.2281 11.3194 12.589C11.7144 12.2818 12.2187 12.1182 12.8042 12.0249C13.3916 11.9312 14.1177 11.9002 15.0002 11.9002C15.6424 11.9002 16.2018 11.9167 16.6852 11.9617C16.8078 11.7265 16.8971 11.527 16.9571 11.3548C17.0484 11.093 17.059 10.9303 17.0427 10.8234C17.0155 10.6446 16.8768 10.4103 16.2002 10.0196C15.5236 9.62899 15.2514 9.62606 15.0829 9.69188C14.9822 9.73124 14.8466 9.82175 14.6654 10.0317C14.4835 10.2427 14.2806 10.5444 14.0378 10.9651L12.9985 10.3651C13.2557 9.91971 13.5024 9.54282 13.7568 9.2479C14.012 8.95206 14.2997 8.70956 14.6462 8.57416ZM11.6002 15.5C11.6002 14.2154 11.7528 13.772 12.056 13.5363C12.2235 13.406 12.5004 13.2884 12.9931 13.2099C13.4837 13.1317 14.1327 13.1002 15.0002 13.1002C15.8677 13.1002 16.5166 13.1317 17.0073 13.2099C17.5 13.2884 17.7769 13.406 17.9444 13.5363C18.2476 13.772 18.4002 14.2154 18.4002 15.5C18.4002 16.7656 18.2567 17.3951 17.8884 17.7635C17.5138 18.1382 16.7453 18.4004 15.0002 18.4002C13.2552 18.4001 12.4866 18.138 12.112 17.7633C11.7437 17.395 11.6002 16.7656 11.6002 15.5ZM14.4002 14.4999V16.4999H15.6002V14.4999H14.4002Z" fill="#09101C"/>
</svg>
