<svg width="12" height="12" viewBox="0 0 12 12" fill="none" xmlns="http://www.w3.org/2000/svg">
<g clip-path="url(#clip0_1945_871)">
<path fill-rule="evenodd" clip-rule="evenodd" d="M3.87631 0.872422C5.00506 0.40488 6.25653 0.322854 7.43665 0.639065C8.61676 0.955276 9.65956 1.65205 10.4033 2.62133C11.1471 3.5906 11.5502 4.77821 11.5502 5.99995V6.49995C11.5502 7.63214 10.6324 8.54995 9.5002 8.54995C8.83314 8.54995 8.2405 8.23135 7.86614 7.73801C7.40062 8.23756 6.73689 8.54995 6.0002 8.54995C4.59188 8.54995 3.4502 7.40828 3.4502 5.99995C3.4502 4.59163 4.59188 3.44995 6.0002 3.44995C6.53887 3.44995 7.03852 3.61697 7.4502 3.90205V3.49995H8.5502V5.99995V6.49995C8.5502 7.02462 8.97553 7.44995 9.5002 7.44995C10.0249 7.44995 10.4502 7.02462 10.4502 6.49995V5.99995C10.4502 5.02036 10.127 4.06813 9.53063 3.29096C8.93428 2.5138 8.09817 1.95512 7.15195 1.70158C6.20573 1.44804 5.20229 1.51381 4.29726 1.88869C3.39223 2.26356 2.63619 2.9266 2.14639 3.77495C1.65659 4.62331 1.46041 5.60958 1.58827 6.58079C1.71614 7.55201 2.1609 8.4539 2.85358 9.14658C3.54626 9.83926 4.44814 10.284 5.41936 10.4119C6.39058 10.5397 7.37685 10.3436 8.2252 9.85377L8.7752 10.8064C7.71714 11.4173 6.48707 11.6619 5.27578 11.5025C4.06449 11.343 2.93966 10.7883 2.07576 9.9244C1.21186 9.06049 0.657154 7.93567 0.497684 6.72437C0.338214 5.51308 0.58289 4.28302 1.19376 3.22495C1.80463 2.16689 2.74756 1.33996 3.87631 0.872422ZM7.4502 5.99995C7.4502 5.19914 6.80102 4.54995 6.0002 4.54995C5.19939 4.54995 4.5502 5.19914 4.5502 5.99995C4.5502 6.80077 5.19939 7.44995 6.0002 7.44995C6.80102 7.44995 7.4502 6.80077 7.4502 5.99995Z" fill="#09101C"/>
</g>
<defs>
<clipPath id="clip0_1945_871">
<rect width="12" height="12" fill="white"/>
</clipPath>
</defs>
</svg>
