<svg width="12" height="12" viewBox="0 0 12 12" fill="none" xmlns="http://www.w3.org/2000/svg">
<g clip-path="url(#clip0_3493_1075)">
<path fill-rule="evenodd" clip-rule="evenodd" d="M6.00019 0.449951C4.83583 0.449951 3.89912 0.475122 3.16279 0.593661C2.42334 0.712702 1.80976 0.936797 1.35829 1.39532C0.907458 1.85319 0.693229 2.46887 0.581475 3.20225C0.47014 3.93288 0.450195 4.8582 0.450195 5.99995C0.450195 7.14171 0.470138 8.06702 0.581472 8.79765C0.693225 9.53103 0.907451 10.1467 1.35828 10.6046C1.80975 11.0631 2.42333 11.2872 3.16278 11.4062C3.89912 11.5248 4.83583 11.55 6.00019 11.55C7.16455 11.55 8.10126 11.5248 8.8376 11.4062C9.57705 11.2872 10.1906 11.0631 10.6421 10.6046C11.0929 10.1467 11.3071 9.53103 11.4189 8.79765C11.5302 8.06702 11.5502 7.14171 11.5502 5.99995C11.5502 4.8582 11.5302 3.93288 11.4189 3.20225C11.3071 2.46887 11.0929 1.8532 10.6421 1.39532C10.1906 0.936797 9.57704 0.712702 8.83759 0.593661C8.10126 0.475122 7.16455 0.449951 6.00019 0.449951ZM1.5502 5.99995C1.5502 4.85004 1.57192 4.00452 1.66892 3.36796C1.7655 2.73415 1.92628 2.38629 2.14211 2.16708C2.35731 1.94852 2.70207 1.78199 3.33762 1.67968C3.97628 1.57686 4.83123 1.54995 6.00019 1.54995C7.16916 1.54995 8.0241 1.57686 8.66276 1.67968C9.2983 1.78199 9.64306 1.94852 9.85826 2.16708C10.0741 2.38629 10.2349 2.73415 10.3314 3.36796C10.4284 4.00452 10.4502 4.85004 10.4502 5.99995C10.4502 7.14986 10.4284 7.99538 10.3314 8.63194C10.2349 9.26575 10.0741 9.61361 9.85826 9.83282C9.64307 10.0514 9.29831 10.2179 8.66277 10.3202C8.02411 10.423 7.16916 10.45 6.00019 10.45C4.83122 10.45 3.97627 10.423 3.33761 10.3202C2.70206 10.2179 2.35731 10.0514 2.14211 9.83282C1.92627 9.61361 1.7655 9.26575 1.66892 8.63194C1.57192 7.99538 1.5502 7.14986 1.5502 5.99995ZM2.9999 3.5999C3.33127 3.5999 3.5999 3.33127 3.5999 2.9999C3.5999 2.66853 3.33127 2.3999 2.9999 2.3999C2.66853 2.3999 2.3999 2.66853 2.3999 2.9999C2.3999 3.33127 2.66853 3.5999 2.9999 3.5999ZM5.0999 2.9999C5.0999 3.33127 4.83127 3.5999 4.4999 3.5999C4.16853 3.5999 3.8999 3.33127 3.8999 2.9999C3.8999 2.66853 4.16853 2.3999 4.4999 2.3999C4.83127 2.3999 5.0999 2.66853 5.0999 2.9999ZM5.9999 3.5999C6.33127 3.5999 6.5999 3.33127 6.5999 2.9999C6.5999 2.66853 6.33127 2.3999 5.9999 2.3999C5.66853 2.3999 5.3999 2.66853 5.3999 2.9999C5.3999 3.33127 5.66853 3.5999 5.9999 3.5999Z" fill="#09101C"/>
</g>
<defs>
<clipPath id="clip0_3493_1075">
<rect width="12" height="12" fill="white"/>
</clipPath>
</defs>
</svg>
