<svg width="16" height="16" viewBox="0 0 16 16" fill="none" xmlns="http://www.w3.org/2000/svg">
<path fill-rule="evenodd" clip-rule="evenodd" d="M7.47372 0.778647C8.31201 0.574425 9.08464 0.867324 9.71353 1.23042C10.3424 1.59351 10.9824 2.11617 11.2247 2.94426C11.3913 3.51392 11.3474 4.14935 11.0896 4.86305C11.4508 5.02473 11.7663 5.23849 12.0338 5.51866C12.8913 6.41659 13.0999 7.83788 13.0999 9.75C13.0999 11.6621 12.8913 13.0834 12.0338 13.9813C11.1665 14.8896 9.79491 15.1 7.9999 15.1C6.20489 15.1 4.83332 14.8896 3.96598 13.9813C3.1085 13.0834 2.8999 11.6621 2.8999 9.75C2.8999 7.83788 3.1085 6.41659 3.96598 5.51866C4.83332 4.6104 6.20489 4.4 7.9999 4.4C8.71293 4.4 9.35914 4.4332 9.93347 4.53015C10.1554 3.95333 10.1536 3.55698 10.073 3.28123C9.95954 2.89359 9.64198 2.57475 9.11353 2.26965C8.58507 1.96454 8.15017 1.84895 7.75776 1.94455C7.36882 2.0393 6.85373 2.38373 6.26808 3.39811L5.22885 2.79811C5.8932 1.64742 6.63197 0.983715 7.47372 0.778647ZM4.83383 6.34741C4.3413 6.86317 4.0999 7.81688 4.0999 9.75C4.0999 11.6831 4.3413 12.6368 4.83383 13.1526C5.31649 13.658 6.19491 13.9 7.9999 13.9C9.80489 13.9 10.6833 13.658 11.166 13.1526C11.6585 12.6368 11.8999 11.6831 11.8999 9.75C11.8999 7.81688 11.6585 6.86317 11.166 6.34741C10.6833 5.84198 9.80489 5.6 7.9999 5.6C6.19491 5.6 5.31649 5.84198 4.83383 6.34741ZM7.3998 8.4999V10.9999H8.5998V8.4999H7.3998Z" fill="#09101C"/>
</svg>
