<svg width="16" height="16" viewBox="0 0 16 16" fill="none" xmlns="http://www.w3.org/2000/svg">
<g clip-path="url(#clip0_3221_3785)">
<path fill-rule="evenodd" clip-rule="evenodd" d="M10.8677 2.0999H10.8699C10.8703 2.10014 10.8715 2.10055 10.8734 2.10127C10.8881 2.10653 10.9476 2.12785 11.0587 2.20945C11.2069 2.31831 11.3883 2.4911 11.5951 2.72762C12.0067 3.19854 12.4621 3.85617 12.8894 4.57045C13.3152 5.28217 13.7016 6.03062 13.9794 6.67375C14.1184 6.99556 14.2269 7.28345 14.2997 7.52223C14.3759 7.77246 14.3999 7.92769 14.3999 7.9999C14.3999 8.07212 14.3759 8.22734 14.2997 8.47757C14.2269 8.71635 14.1184 9.00425 13.9794 9.32606C13.7016 9.96918 13.3152 10.7176 12.8894 11.4294C12.782 11.6089 12.6728 11.7849 12.563 11.9553C12.4693 11.8563 12.3716 11.7625 12.27 11.6735C11.1034 10.6528 9.54502 10.4001 7.9999 10.4001C6.45477 10.4001 4.89635 10.6528 3.72979 11.6735C3.62233 11.7676 3.51929 11.8671 3.42074 11.9724C3.30838 11.7974 3.19679 11.6164 3.08719 11.4315C2.66582 10.7205 2.28556 9.97255 2.01274 9.3296C1.87624 9.00791 1.76978 8.71988 1.69843 8.48084C1.62377 8.23069 1.5999 8.07407 1.5999 7.9999C1.5999 7.92769 1.62388 7.77246 1.70012 7.52223C1.77287 7.28345 1.88139 6.99556 2.02039 6.67375C2.29817 6.03062 2.68456 5.28217 3.11037 4.57045C3.53772 3.85617 3.99307 3.19854 4.40475 2.72762C4.61152 2.4911 4.79293 2.31831 4.94115 2.20945C5.05224 2.12785 5.11168 2.10653 5.12635 2.10127C5.12835 2.10055 5.12952 2.10014 5.12987 2.0999H5.13212H5.13947H5.14688H5.15432H5.16182H5.16936H5.17695H5.18458H5.19226H5.19998H5.20775H5.21556H5.22342H5.23132H5.23926H5.24725H5.25529H5.26337H5.27149H5.27965H5.28786H5.29611H5.30441H5.31275H5.32113H5.32955H5.33801H5.34652H5.35507H5.36366H5.37229H5.38096H5.38967H5.39843H5.40722H5.41606H5.42493H5.43385H5.44281H5.4518H5.46084H5.46991H5.47902H5.48818H5.49737H5.5066H5.51587H5.52518H5.53452H5.5439H5.55332H5.56278H5.57228H5.58181H5.59138H5.60099H5.61063H5.62031H5.63003H5.63978H5.64957H5.65939H5.66925H5.67914H5.68907H5.69904H5.70904H5.71907H5.72914H5.73924H5.74938H5.75955H5.76976H5.77999H5.79026H5.80057H5.81091H5.82128H5.83168H5.84211H5.85258H5.86308H5.87361H5.88417H5.89477H5.90539H5.91605H5.92674H5.93746H5.9482H5.95898H5.96979H5.98063H5.9915H6.0024H6.01333H6.02429H6.03527H6.04629H6.05733H6.06841H6.07951H6.09064H6.10179H6.11298H6.12419H6.13543H6.1467H6.15799H6.16932H6.18066H6.19204H6.20344H6.21487H6.22632H6.2378H6.2493H6.26083H6.27239H6.28397H6.29557H6.3072H6.31885H6.33053H6.34223H6.35396H6.36571H6.37748H6.38928H6.4011H6.41294H6.42481H6.4367H6.44861H6.46054H6.4725H6.48448H6.49648H6.5085H6.52054H6.5326H6.54469H6.55679H6.56892H6.58106H6.59323H6.60541H6.61762H6.62985H6.64209H6.65436H6.66664H6.67894H6.69126H6.7036H6.71596H6.72834H6.74074H6.75315H6.76558H6.77803H6.79049H6.80297H6.81547L6.82799 2.0999H6.84052H6.85307H6.86563H6.87822H6.89081H6.90343H6.91605H6.9287H6.94136H6.95403H6.96672H6.97942H6.99214H7.00487H7.01761H7.03037H7.04314H7.05593H7.06873H7.08154H7.09437H7.1072H7.12006H7.13292H7.14579H7.15868H7.17158H7.18449H7.19741H7.21034H7.22329H7.23624H7.24921H7.26218H7.27517H7.28817H7.30117H7.31419H7.32721H7.34025H7.35329H7.36635H7.37941H7.39248H7.40556H7.41865H7.43174H7.44484H7.45796H7.47108H7.4842H7.49733H7.51047H7.52362H7.53678H7.54994H7.5631H7.57627H7.58945H7.60264H7.61583H7.62902H7.64222H7.65543H7.66864H7.68185H7.69507H7.70829H7.72152H7.73475H7.74799H7.76123H7.77447H7.78771H7.80096H7.81421H7.82746H7.84072H7.85398H7.86724H7.8805H7.89376H7.90702H7.92029H7.93356H7.94683H7.96009H7.97336H7.98663H7.9999H8.01317H8.02644H8.03971H8.05298H8.06625H8.07951H8.09278H8.10604H8.11931H8.13257H8.14583H8.15909H8.17234H8.18559H8.19884H8.21209H8.22534H8.23858H8.25182H8.26505H8.27828H8.29151H8.30473H8.31795H8.33117H8.34438H8.35758H8.37078H8.38398H8.39717H8.41035H8.42353H8.4367H8.44987H8.46303H8.47618H8.48933H8.50247H8.5156H8.52873H8.54185H8.55496H8.56806H8.58116H8.59424H8.60732H8.6204H8.63346H8.64651H8.65955H8.67259H8.68562H8.69863H8.71164H8.72463H8.73762H8.7506H8.76356H8.77652H8.78946H8.80239H8.81532H8.82823H8.84112H8.85401H8.86689H8.87975H8.8926H8.90544H8.91826H8.93107H8.94387H8.95666H8.96943H8.98219H8.99494H9.00767H9.02038H9.03309H9.04577H9.05845H9.07111H9.08375H9.09638H9.10899H9.12159H9.13417H9.14673H9.15928H9.17181H9.18433H9.19683H9.20931H9.22178H9.23423H9.24666H9.25907H9.27146H9.28384H9.2962H9.30854H9.32086H9.33316H9.34545H9.35771H9.36996H9.38218H9.39439H9.40658H9.41874H9.43089H9.44301H9.45512H9.4672H9.47927H9.49131H9.50333H9.51533H9.5273H9.53926L9.55119 2.0999H9.5631H9.57499H9.58686H9.5987H9.61052H9.62232H9.63409H9.64584H9.65757H9.66927H9.68095H9.6926H9.70423H9.71584H9.72742H9.73897H9.7505H9.76201H9.77349H9.78494H9.79636H9.80777H9.81914H9.83049H9.84181H9.8531H9.86437H9.87561H9.88682H9.89801H9.90917H9.9203H9.9314H9.94247H9.95351H9.96453H9.97552H9.98647H9.9974H10.0083H10.0192H10.03H10.0408H10.0516H10.0623H10.0731H10.0838H10.0944H10.105H10.1156H10.1262H10.1367H10.1472H10.1577H10.1681H10.1785H10.1889H10.1992H10.2095H10.2198H10.23H10.2403H10.2504H10.2606H10.2707H10.2807H10.2908H10.3008H10.3107H10.3207H10.3306H10.3404H10.3502H10.36H10.3698H10.3795H10.3892H10.3988H10.4084H10.418H10.4275H10.437H10.4465H10.4559H10.4653H10.4746H10.4839H10.4932H10.5024H10.5116H10.5208H10.5299H10.539H10.548H10.557H10.566H10.5749H10.5837H10.5926H10.6014H10.6101H10.6188H10.6275H10.6361H10.6447H10.6533H10.6618H10.6703H10.6787H10.6871H10.6954H10.7037H10.7119H10.7201H10.7283H10.7364H10.7445H10.7525H10.7605H10.7685H10.7764H10.7842H10.7921H10.7998H10.8075H10.8152H10.8229H10.8304H10.838H10.8455H10.8529H10.8603H10.8677ZM4.13436 12.9809C4.216 13.0838 4.29668 13.1806 4.37591 13.2707C4.5833 13.5063 4.76634 13.6782 4.91727 13.7866C5.04161 13.8759 5.10643 13.8949 5.11997 13.8989C5.1218 13.8994 5.12269 13.8997 5.12267 13.8998L5.12237 13.8999H5.12481H5.13212H5.13947H5.14688H5.15432H5.16182H5.16936H5.17695H5.18458H5.19225H5.19998H5.20775H5.21556H5.22341H5.23132H5.23926H5.24725H5.25529H5.26337H5.27149H5.27965H5.28786H5.29611H5.30441H5.31275H5.32113H5.32955H5.33801H5.34652H5.35507H5.36366H5.37229H5.38096H5.38967H5.39843H5.40722H5.41606H5.42493H5.43385H5.44281H5.4518H5.46084H5.46991H5.47902H5.48818H5.49737H5.5066H5.51587H5.52517H5.53452H5.5439H5.55332H5.56278H5.57228H5.58181H5.59138H5.60099H5.61063H5.62031H5.63003H5.63978H5.64957H5.65939H5.66925H5.67914H5.68907H5.69904H5.70904H5.71907H5.72914H5.73924H5.74938H5.75955H5.76975H5.77999H5.79026H5.80057H5.8109H5.82128H5.83168H5.84211H5.85258H5.86308H5.87361H5.88417H5.89477H5.90539H5.91605H5.92674H5.93746H5.9482H5.95898H5.96979H5.98063H5.9915H6.0024H6.01333H6.02429H6.03527H6.04629H6.05733H6.06841H6.07951H6.09064H6.10179H6.11298H6.12419H6.13543H6.1467H6.15799H6.16931H6.18066H6.19204H6.20344H6.21487H6.22632H6.2378H6.2493H6.26083H6.27239H6.28397H6.29557H6.3072H6.31885H6.33053H6.34223H6.35396H6.36571H6.37748H6.38928H6.4011H6.41294H6.42481H6.4367H6.44861H6.46054H6.4725H6.48448H6.49647H6.5085H6.52054H6.5326H6.54468H6.55679H6.56892H6.58106H6.59323H6.60541H6.61762H6.62985H6.64209H6.65436H6.66664H6.67894H6.69126H6.7036H6.71596H6.72834H6.74073H6.75315H6.76558H6.77803H6.79049H6.80297H6.81547H6.82799H6.84052H6.85307H6.86563H6.87822H6.89081H6.90342H6.91605H6.9287H6.94136H6.95403H6.96672H6.97942H6.99214H7.00487H7.01761H7.03037H7.04314H7.05593H7.06873H7.08154H7.09437H7.1072H7.12005H7.13292H7.14579H7.15868H7.17158H7.18449H7.19741H7.21034H7.22329H7.23624H7.24921H7.26218H7.27517H7.28817H7.30117H7.31419H7.32721H7.34025H7.35329H7.36635H7.37941H7.39248H7.40556H7.41865H7.43174H7.44484H7.45796H7.47107H7.4842H7.49733H7.51047H7.52362H7.53678H7.54994H7.5631H7.57627H7.58945H7.60264H7.61583H7.62902H7.64222H7.65543H7.66864H7.68185H7.69507H7.70829H7.72152H7.73475H7.74799H7.76122H7.77447H7.78771H7.80096H7.81421H7.82746H7.84072H7.85397H7.86723H7.8805H7.89376H7.90702H7.92029H7.93356H7.94682H7.96009H7.97336H7.98663H7.9999H8.01317H8.02644H8.03971H8.05298H8.06625H8.07951H8.09278H8.10604H8.11931H8.13257H8.14583H8.15909H8.17234H8.18559H8.19884H8.21209H8.22534H8.23858H8.25182H8.26505H8.27828H8.29151H8.30473H8.31795H8.33117H8.34438H8.35758H8.37078H8.38398H8.39717H8.41035H8.42353H8.4367H8.44987H8.46303H8.47618H8.48933H8.50247H8.5156H8.52873H8.54185H8.55496H8.56806H8.58116H8.59424H8.60732H8.62039H8.63346H8.64651H8.65955H8.67259H8.68561H8.69863H8.71164H8.72463H8.73762H8.7506H8.76356H8.77652H8.78946H8.80239H8.81531H8.82823H8.84112H8.85401H8.86689H8.87975H8.8926H8.90544H8.91826H8.93107H8.94387H8.95666H8.96943H8.98219H8.99494H9.00767H9.02038H9.03309H9.04577H9.05845H9.07111H9.08375H9.09638H9.10899H9.12159H9.13417H9.14673H9.15928H9.17181H9.18433H9.19683H9.20931H9.22178H9.23423H9.24666H9.25907H9.27146H9.28384H9.2962H9.30854H9.32086H9.33316H9.34545H9.35771H9.36996H9.38218H9.39439H9.40658H9.41874H9.43089H9.44301H9.45512H9.4672H9.47927H9.49131H9.50333H9.51533H9.5273H9.53926H9.55119H9.5631H9.57499H9.58686H9.5987H9.61052H9.62232H9.63409H9.64584H9.65757H9.66927H9.68095H9.6926H9.70423H9.71584H9.72742H9.73897H9.7505H9.76201H9.77349H9.78494H9.79636H9.80777H9.81914H9.83049H9.84181H9.8531H9.86437H9.87561H9.88682H9.89801H9.90917H9.9203H9.9314H9.94247H9.95351H9.96453H9.97552H9.98647H9.9974H10.0083H10.0192H10.03H10.0408H10.0516H10.0623H10.0731H10.0838H10.0944H10.105H10.1156H10.1262H10.1367H10.1472H10.1577H10.1681H10.1785H10.1889H10.1992H10.2095H10.2198H10.23H10.2403H10.2504H10.2606H10.2707H10.2807H10.2908H10.3008H10.3107H10.3207H10.3306H10.3404H10.3502H10.36H10.3698H10.3795H10.3892H10.3988H10.4084H10.418H10.4275H10.437H10.4465H10.4559H10.4653H10.4746H10.4839H10.4932H10.5024H10.5116H10.5208H10.5299H10.539H10.548H10.557H10.566H10.5749H10.5837H10.5926H10.6014H10.6101H10.6188H10.6275H10.6361H10.6447H10.6533H10.6618H10.6703H10.6787H10.6871H10.6954H10.7037H10.7119H10.7201H10.7283H10.7364H10.7445H10.7525H10.7605H10.7685H10.7764H10.7842H10.7921H10.7998H10.8075H10.8152H10.8229H10.8304H10.838H10.8455H10.8529H10.8603H10.8677H10.8699C10.8703 13.8997 10.8715 13.8993 10.8734 13.8985C10.8881 13.8933 10.9476 13.872 11.0587 13.7904C11.2069 13.6815 11.3883 13.5087 11.5951 13.2722C11.6787 13.1765 11.7642 13.073 11.8509 12.9629C11.7337 12.8181 11.6095 12.6901 11.4798 12.5766C10.6464 11.8474 9.45477 11.6001 7.9999 11.6001C6.54502 11.6001 5.35345 11.8474 4.52 12.5766C4.38499 12.6948 4.25587 12.8287 4.13436 12.9809ZM15.5999 7.9999C15.5999 7.74712 15.5338 7.45547 15.4476 7.1725C15.3579 6.87807 15.2316 6.54643 15.081 6.19793C14.7798 5.50043 14.3684 4.70513 13.9192 3.95435C13.4715 3.20613 12.9747 2.48252 12.4985 1.93782C12.2613 1.66652 12.0149 1.4229 11.769 1.24231C11.539 1.07336 11.2302 0.899902 10.8823 0.899902H10.875H10.8677H10.8603H10.8529H10.8455H10.838H10.8304H10.8229H10.8152H10.8075H10.7998H10.7921H10.7842H10.7764H10.7685H10.7605H10.7525H10.7445H10.7364H10.7283H10.7201H10.7119H10.7037H10.6954H10.6871H10.6787H10.6703H10.6618H10.6533H10.6447H10.6361H10.6275H10.6188H10.6101H10.6014H10.5926H10.5837H10.5749H10.566H10.557H10.548H10.539H10.5299H10.5208H10.5116H10.5024H10.4932H10.4839H10.4746H10.4653H10.4559H10.4465H10.437H10.4275H10.418H10.4084H10.3988H10.3892H10.3795H10.3698H10.36H10.3502H10.3404H10.3306H10.3207H10.3107H10.3008H10.2908H10.2807H10.2707H10.2606H10.2504H10.2403H10.23H10.2198H10.2095H10.1992H10.1889H10.1785H10.1681H10.1577H10.1472H10.1367H10.1262H10.1156H10.105H10.0944H10.0838H10.0731H10.0623H10.0516H10.0408H10.03H10.0192H10.0083H9.9974H9.98647H9.97552H9.96453H9.95352H9.94247H9.9314H9.9203H9.90917H9.89801H9.88682H9.87561H9.86437H9.8531H9.84181H9.83049H9.81914H9.80777H9.79637H9.78494H9.77349H9.76201H9.7505H9.73897H9.72742H9.71584H9.70423H9.6926H9.68095H9.66927H9.65757H9.64584H9.63409H9.62232H9.61052H9.5987H9.58686H9.57499H9.5631H9.55119H9.53926H9.5273H9.51533H9.50333H9.49131H9.47927H9.4672H9.45512H9.44301H9.43089H9.41874H9.40658H9.39439H9.38218H9.36996H9.35771H9.34545H9.33316H9.32086H9.30854H9.2962H9.28384H9.27146H9.25907H9.24666H9.23423H9.22178H9.20931H9.19683H9.18433H9.17182H9.15928H9.14673H9.13417H9.12159H9.10899H9.09638H9.08375H9.07111H9.05845H9.04578H9.03309H9.02038H9.00767H8.99494H8.98219H8.96943H8.95666H8.94387H8.93108H8.91826H8.90544H8.8926H8.87975H8.86689H8.85401H8.84112H8.82823H8.81532H8.80239H8.78946H8.77652H8.76356H8.7506H8.73762H8.72464H8.71164H8.69863H8.68562H8.67259H8.65956H8.64651H8.63346H8.6204H8.60732H8.59425H8.58116H8.56806H8.55496H8.54185H8.52873H8.5156H8.50247H8.48933H8.47618H8.46303H8.44987H8.4367H8.42353H8.41035H8.39717H8.38398H8.37078H8.35758H8.34438H8.33117H8.31795H8.30473H8.29151H8.27828H8.26505H8.25182H8.23858H8.22534H8.21209H8.19884H8.18559H8.17234H8.15909H8.14583H8.13257H8.11931H8.10604H8.09278H8.07951H8.06625H8.05298H8.03971H8.02644H8.01317H7.9999H7.98663H7.97336H7.96009H7.94683H7.93356H7.92029H7.90702H7.89376H7.8805H7.86724H7.85398H7.84072H7.82746H7.81421H7.80096H7.78771H7.77447H7.76123H7.74799H7.73475H7.72152H7.70829H7.69507H7.68185H7.66864H7.65543H7.64222H7.62902H7.61583H7.60264H7.58945H7.57627H7.5631H7.54994H7.53678H7.52362H7.51047H7.49733H7.4842H7.47108H7.45796H7.44484H7.43174H7.41865H7.40556H7.39248H7.37941H7.36635H7.35329H7.34025H7.32721H7.31419H7.30117H7.28817H7.27517H7.26218H7.24921H7.23624H7.22329H7.21034H7.19741H7.18449H7.17158H7.15868H7.14579H7.13292H7.12006H7.1072H7.09437H7.08154H7.06873H7.05593H7.04314H7.03037H7.01761H7.00487H6.99214H6.97942H6.96672H6.95403H6.94136H6.9287H6.91605H6.90343H6.89081H6.87822H6.86563H6.85307H6.84052H6.82799H6.81547H6.80297H6.79049H6.77803H6.76558H6.75315H6.74074H6.72834H6.71596H6.7036H6.69126H6.67894H6.66664H6.65436H6.64209H6.62985H6.61762H6.60541H6.59323H6.58106H6.56892H6.55679H6.54469H6.5326H6.52054H6.5085H6.49648H6.48448H6.4725H6.46054H6.44861H6.4367H6.42481H6.41294H6.4011H6.38928H6.37748H6.36571H6.35396H6.34223H6.33053H6.31885H6.3072H6.29557H6.28397H6.27239H6.26083H6.2493H6.2378H6.22632H6.21487H6.20344H6.19204H6.18066H6.16932H6.15799H6.1467H6.13543H6.12419H6.11298H6.10179H6.09064H6.07951H6.06841H6.05733H6.04629H6.03527H6.02429H6.01333H6.0024H5.9915H5.98063H5.96979H5.95898H5.9482H5.93746H5.92674H5.91605H5.90539H5.89477H5.88417H5.87361H5.86308H5.85258H5.84211H5.83168H5.82128H5.81091H5.80057H5.79026H5.77999H5.76976H5.75955H5.74938H5.73924H5.72914H5.71907H5.70904H5.69904H5.68907H5.67914H5.66925H5.65939H5.64957H5.63978H5.63003H5.62031H5.61063H5.60099H5.59138H5.58181H5.57228H5.56278H5.55332H5.5439H5.53452H5.52518H5.51587H5.5066H5.49737H5.48818H5.47902H5.46991H5.46084H5.4518H5.44281H5.43385H5.42493H5.41606H5.40722H5.39843H5.38967H5.38096H5.37229H5.36366H5.35507H5.34652H5.33801H5.32955H5.32113H5.31275H5.30441H5.29611H5.28786H5.27965H5.27149H5.26337H5.25529H5.24725H5.23926H5.23132H5.22342H5.21556H5.20775H5.19998H5.19226H5.18458H5.17695H5.16936H5.16182H5.15432H5.14688H5.13947H5.13212H5.12481H5.11755C4.76965 0.899902 4.46078 1.07335 4.23076 1.24231C3.9849 1.4229 3.73847 1.66652 3.5013 1.93781C3.02512 2.48252 2.52826 3.20613 2.08061 3.95435C1.63142 4.70513 1.22002 5.50043 0.918754 6.19793C0.768228 6.54643 0.641918 6.87807 0.552213 7.17249C0.465998 7.45547 0.399902 7.74712 0.399902 7.9999C0.399902 8.25074 0.464074 8.541 0.548555 8.82404C0.636353 9.11821 0.760144 9.44971 0.908072 9.79833C1.20411 10.496 1.60943 11.2918 2.0549 12.0433C2.49874 12.7921 2.99435 13.5173 3.47515 14.0635C3.71475 14.3357 3.96516 14.5802 4.21721 14.7612C4.4562 14.9329 4.76826 15.0999 5.11755 15.0999H5.12481H5.13212H5.13947H5.14688H5.15432H5.16182H5.16936H5.17695H5.18458H5.19225H5.19998H5.20775H5.21556H5.22341H5.23132H5.23926H5.24725H5.25529H5.26337H5.27149H5.27965H5.28786H5.29611H5.30441H5.31275H5.32113H5.32955H5.33801H5.34652H5.35507H5.36366H5.37229H5.38096H5.38967H5.39843H5.40722H5.41606H5.42493H5.43385H5.44281H5.4518H5.46084H5.46991H5.47902H5.48818H5.49737H5.5066H5.51587H5.52517H5.53452H5.5439H5.55332H5.56278H5.57228H5.58181H5.59138H5.60099H5.61063H5.62031H5.63003H5.63978H5.64957H5.65939H5.66925H5.67914H5.68907H5.69904H5.70904H5.71907H5.72914H5.73924H5.74938H5.75955H5.76975H5.77999H5.79026H5.80057H5.8109H5.82128H5.83168H5.84211H5.85258H5.86308H5.87361H5.88417H5.89477H5.90539H5.91605H5.92674H5.93746H5.9482H5.95898H5.96979H5.98063H5.9915H6.0024H6.01333H6.02429H6.03527H6.04629H6.05733H6.06841H6.07951H6.09064H6.10179H6.11298H6.12419H6.13543H6.1467H6.15799H6.16931H6.18066H6.19204H6.20344H6.21487H6.22632H6.2378H6.2493H6.26083H6.27239H6.28397H6.29557H6.3072H6.31885H6.33053H6.34223H6.35396H6.36571H6.37748H6.38928H6.4011H6.41294H6.42481H6.4367H6.44861H6.46054H6.4725H6.48448H6.49647H6.5085H6.52054H6.5326H6.54468H6.55679H6.56892H6.58106H6.59323H6.60541H6.61762H6.62985H6.64209H6.65436H6.66664H6.67894H6.69126H6.7036H6.71596H6.72834H6.74073H6.75315H6.76558H6.77803H6.79049H6.80297H6.81547H6.82799H6.84052H6.85307H6.86563H6.87822H6.89081H6.90342H6.91605H6.9287H6.94136H6.95403H6.96672H6.97942H6.99214H7.00487H7.01761H7.03037H7.04314H7.05593H7.06873H7.08154H7.09437H7.1072H7.12005H7.13292H7.14579H7.15868H7.17158H7.18449H7.19741H7.21034H7.22329H7.23624H7.24921H7.26218H7.27517H7.28817H7.30117H7.31419H7.32721H7.34025H7.35329H7.36635H7.37941H7.39248H7.40556H7.41865H7.43174H7.44484H7.45796H7.47107H7.4842H7.49733H7.51047H7.52362H7.53678H7.54994H7.5631H7.57627H7.58945H7.60264H7.61583H7.62902H7.64222H7.65543H7.66864H7.68185H7.69507H7.70829H7.72152H7.73475H7.74799H7.76122H7.77447H7.78771H7.80096H7.81421H7.82746H7.84072H7.85397H7.86723H7.8805H7.89376H7.90702H7.92029H7.93356H7.94682H7.96009H7.97336H7.98663H7.9999H8.01317H8.02644H8.03971H8.05298H8.06625H8.07951H8.09278H8.10604H8.11931H8.13257H8.14583H8.15909H8.17234H8.18559H8.19884H8.21209H8.22534H8.23858H8.25182H8.26505H8.27828H8.29151H8.30473H8.31795H8.33117H8.34438H8.35758H8.37078H8.38398H8.39717H8.41035H8.42353H8.4367H8.44987H8.46303H8.47618H8.48933H8.50247H8.5156H8.52873H8.54185H8.55496H8.56806H8.58116H8.59424H8.60732H8.62039H8.63346H8.64651H8.65955H8.67259H8.68561H8.69863H8.71164H8.72463H8.73762H8.7506H8.76356H8.77652H8.78946H8.80239H8.81531H8.82823H8.84112H8.85401H8.86689H8.87975H8.8926H8.90544H8.91826H8.93107H8.94387H8.95666H8.96943H8.98219H8.99494H9.00767H9.02038H9.03309H9.04577H9.05845H9.07111H9.08375H9.09638H9.10899H9.12159H9.13417H9.14673H9.15928H9.17181H9.18433H9.19683H9.20931H9.22178H9.23423H9.24666H9.25907H9.27146H9.28384H9.2962H9.30854H9.32086H9.33316H9.34545H9.35771H9.36996H9.38218H9.39439H9.40658H9.41874H9.43089H9.44301H9.45512H9.4672H9.47927H9.49131H9.50333H9.51533H9.5273H9.53926H9.55119H9.5631H9.57499H9.58686H9.5987H9.61052H9.62232H9.63409H9.64584H9.65757H9.66927H9.68095H9.6926H9.70423H9.71584H9.72742H9.73897H9.7505H9.76201H9.77349H9.78494H9.79636H9.80777H9.81914H9.83049H9.84181H9.8531H9.86437H9.87561H9.88682H9.89801H9.90917H9.9203H9.9314H9.94247H9.95351H9.96453H9.97552H9.98647H9.9974H10.0083H10.0192H10.03H10.0408H10.0516H10.0623H10.0731H10.0838H10.0944H10.105H10.1156H10.1262H10.1367H10.1472H10.1577H10.1681H10.1785H10.1889H10.1992H10.2095H10.2198H10.23H10.2403H10.2504H10.2606H10.2707H10.2807H10.2908H10.3008H10.3107H10.3207H10.3306H10.3404H10.3502H10.36H10.3698H10.3795H10.3892H10.3988H10.4084H10.418H10.4275H10.437H10.4465H10.4559H10.4653H10.4746H10.4839H10.4932H10.5024H10.5116H10.5208H10.5299H10.539H10.548H10.557H10.566H10.5749H10.5837H10.5926H10.6014H10.6101H10.6188H10.6275H10.6361H10.6447H10.6533H10.6618H10.6703H10.6787H10.6871H10.6954H10.7037H10.7119H10.7201H10.7283H10.7364H10.7445H10.7525H10.7605H10.7685H10.7764H10.7842H10.7921H10.7998H10.8075H10.8152H10.8229H10.8304H10.838H10.8455H10.8529H10.8603H10.8677H10.875H10.8823C11.2302 15.0999 11.539 14.9265 11.769 14.7575C12.0149 14.5769 12.2613 14.3333 12.4985 14.062C12.9747 13.5173 13.4715 12.7937 13.9192 12.0455C14.3684 11.2947 14.7798 10.4994 15.081 9.80188C15.2316 9.45337 15.3579 9.12174 15.4476 8.82731C15.5338 8.54434 15.5999 8.25269 15.5999 7.9999ZM1.8999 17.0001C1.8999 16.6508 1.91169 16.3176 1.93498 16.0001H3.13831C3.1278 16.1294 3.11938 16.2627 3.11313 16.4001H12.8867C12.8804 16.2627 12.872 16.1294 12.8615 16.0001H14.0648C14.0881 16.3176 14.0999 16.6508 14.0999 17.0001L14.0999 17.6001H13.4999H2.4999H1.8999L1.8999 17.0001ZM6.09991 6.5001C6.09991 5.45076 6.95057 4.6001 7.99991 4.6001C9.04925 4.6001 9.89991 5.45076 9.89991 6.5001C9.89991 7.54944 9.04925 8.4001 7.99991 8.4001C6.95057 8.4001 6.09991 7.54944 6.09991 6.5001ZM7.99991 3.4001C6.28782 3.4001 4.89991 4.78802 4.89991 6.5001C4.89991 8.21218 6.28782 9.6001 7.99991 9.6001C9.71199 9.6001 11.0999 8.21218 11.0999 6.5001C11.0999 4.78802 9.71199 3.4001 7.99991 3.4001Z" fill="#09101C"/>
</g>
<defs>
<clipPath id="clip0_3221_3785">
<rect width="16" height="16" fill="white"/>
</clipPath>
</defs>
</svg>
